<svg height="718" width="720" xmlns="http://www.w3.org/2000/svg">
<rect height="718" fill="#555" width="720"></rect>
<text fill="#7f7" font-family="Courier New" font-size="12" xml:space="preserve">
<tspan x="10" y="26">4 megabytes installed</tspan>
<tspan x="10" y="42"></tspan>
<tspan x="10" y="58">node_modules</tspan>
<tspan x="10" y="74">└─┬ i18n@0.8.3 </tspan>
<tspan x="10" y="90">  ├─┬ debug@2.6.3 </tspan>
<tspan x="10" y="106">  │ └── ms@0.7.2 </tspan>
<tspan x="10" y="122">  ├─┬ make-plural@3.0.6 </tspan>
<tspan x="10" y="138">  │ └── minimist@1.2.0 </tspan>
<tspan x="10" y="154">  ├─┬ math-interval-parser@1.1.0 </tspan>
<tspan x="10" y="170">  │ └── xregexp@2.0.0 </tspan>
<tspan x="10" y="186">  ├─┬ messageformat@0.3.1 </tspan>
<tspan x="10" y="202">  │ ├── async@1.5.2 </tspan>
<tspan x="10" y="218">  │ ├─┬ glob@6.0.4 </tspan>
<tspan x="10" y="234">  │ │ ├─┬ inflight@1.0.6 </tspan>
<tspan x="10" y="250">  │ │ │ └── wrappy@1.0.2 </tspan>
<tspan x="10" y="266">  │ │ ├── inherits@2.0.3 </tspan>
<tspan x="10" y="282">  │ │ ├─┬ minimatch@3.0.3 </tspan>
<tspan x="10" y="298">  │ │ │ └─┬ brace-expansion@1.1.7 </tspan>
<tspan x="10" y="314">  │ │ │   ├── balanced-match@0.4.2 </tspan>
<tspan x="10" y="330">  │ │ │   └── concat-map@0.0.1 </tspan>
<tspan x="10" y="346">  │ │ ├── once@1.4.0 </tspan>
<tspan x="10" y="362">  │ │ └── path-is-absolute@1.0.1 </tspan>
<tspan x="10" y="378">  │ ├─┬ nopt@3.0.6 </tspan>
<tspan x="10" y="394">  │ │ └── abbrev@1.1.0 </tspan>
<tspan x="10" y="410">  │ └─┬ watchr@2.4.13 </tspan>
<tspan x="10" y="426">  │   ├── eachr@2.0.4 </tspan>
<tspan x="10" y="442">  │   ├─┬ extendr@2.1.0 </tspan>
<tspan x="10" y="458">  │   │ └── typechecker@2.0.8 </tspan>
<tspan x="10" y="474">  │   ├─┬ extract-opts@2.2.0 </tspan>
<tspan x="10" y="490">  │   │ └── typechecker@2.0.8 </tspan>
<tspan x="10" y="506">  │   ├─┬ ignorefs@1.2.0 </tspan>
<tspan x="10" y="522">  │   │ ├── editions@1.3.3 </tspan>
<tspan x="10" y="538">  │   │ └── ignorepatterns@1.1.0 </tspan>
<tspan x="10" y="554">  │   ├─┬ safefs@3.2.2 </tspan>
<tspan x="10" y="570">  │   │ └── graceful-fs@4.1.11 </tspan>
<tspan x="10" y="586">  │   ├── scandirectory@2.5.0 </tspan>
<tspan x="10" y="602">  │   ├─┬ taskgroup@4.3.1 </tspan>
<tspan x="10" y="618">  │   │ ├─┬ ambi@2.5.0 </tspan>
<tspan x="10" y="634">  │   │ │ └── typechecker@4.4.1 </tspan>
<tspan x="10" y="650">  │   │ └── csextends@1.0.3 </tspan>
<tspan x="10" y="666">  │   └── typechecker@2.1.0 </tspan>
<tspan x="10" y="682">  ├── mustache@2.3.0 </tspan>
<tspan x="10" y="698">  └── sprintf-js@1.0.3</tspan>
</text>
</svg>
